<?xml version="1.0" standalone="no"?>
<!DOCTYPE svg PUBLIC "-//W3C//DTD SVG 20010904//EN"
 "http://www.w3.org/TR/2001/REC-SVG-20010904/DTD/svg10.dtd">
<svg version="1.0" xmlns="http://www.w3.org/2000/svg"
 width="272.000000pt" height="50.000000pt" viewBox="0 0 272.000000 50.000000"
 preserveAspectRatio="xMidYMid meet">

<g transform="translate(0.000000,50.000000) scale(0.100000,-0.100000)"
fill="#000000" stroke="none">
<path d="M161 483 c-99 -35 -169 -149 -158 -258 21 -206 270 -299 420 -157 52
49 72 99 72 182 0 64 -4 82 -28 122 -63 108 -187 153 -306 111z m129 -120 c14
-9 28 -21 32 -27 4 -6 11 2 17 17 7 17 18 27 31 27 24 0 25 -17 6 -82 -13 -41
-13 -53 2 -108 14 -53 15 -62 2 -70 -17 -10 -40 5 -40 26 0 19 -7 18 -43 -8
-39 -28 -110 -29 -150 -3 -77 50 -76 180 2 228 34 22 110 22 141 0z"/>
<path d="M162 307 c-60 -63 6 -164 89 -135 34 12 63 64 52 95 -22 63 -99 85
-141 40z"/>
<path d="M2533 370 c-40 -24 -53 -48 -53 -100 0 -90 66 -143 151 -120 97 26
115 166 27 220 -42 25 -84 25 -125 0z m105 -46 c46 -32 18 -134 -37 -134 -35
0 -71 38 -71 76 0 62 58 94 108 58z"/>
<path d="M766 372 c-6 -10 -86 -211 -86 -217 0 -3 11 -5 23 -5 16 0 28 9 35
25 10 21 18 25 56 25 38 0 45 -3 50 -25 5 -18 13 -25 31 -25 14 0 25 3 25 7 0
5 -19 56 -41 115 -36 94 -45 108 -65 108 -12 0 -25 -3 -28 -8z m41 -97 c11
-34 11 -35 -17 -35 -28 0 -28 1 -17 35 6 19 13 35 17 35 4 0 11 -16 17 -35z"/>
<path d="M950 265 l0 -115 75 0 c68 0 75 2 75 20 0 17 -7 20 -50 20 l-50 0 0
95 c0 95 0 95 -25 95 l-25 0 0 -115z"/>
<path d="M1160 265 l0 -115 25 0 c23 0 25 4 25 40 0 39 1 40 35 40 71 0 112
83 65 130 -16 16 -33 20 -85 20 l-65 0 0 -115z m110 60 c19 -23 4 -45 -30 -45
-27 0 -30 3 -30 30 0 25 4 30 24 30 13 0 29 -7 36 -15z"/>
<path d="M1380 265 l0 -115 25 0 c23 0 25 4 25 45 l0 45 50 0 50 0 0 -45 c0
-41 2 -45 25 -45 l25 0 0 115 0 115 -25 0 c-23 0 -25 -4 -25 -45 l0 -45 -50 0
-50 0 0 45 c0 41 -2 45 -25 45 l-25 0 0 -115z"/>
<path d="M1684 308 c-15 -40 -35 -92 -45 -115 l-18 -43 25 0 c16 0 28 8 36 25
9 21 18 25 55 25 37 0 45 -4 53 -25 7 -18 17 -25 35 -25 14 0 25 1 25 3 0 1
-20 52 -43 112 -38 97 -47 110 -69 113 -24 3 -28 -3 -54 -70z m71 -40 c6 -25
5 -28 -19 -28 -30 0 -29 -2 -15 39 12 35 24 31 34 -11z"/>
<path d="M2000 265 l0 -115 71 0 c67 0 73 2 105 34 28 28 34 42 34 76 0 87
-37 119 -137 120 l-73 0 0 -115z m140 55 c30 -30 27 -83 -6 -109 -15 -12 -40
-21 -55 -21 l-29 0 0 75 0 75 35 0 c22 0 43 -8 55 -20z"/>
<path d="M2310 355 c-6 -14 -15 -37 -21 -52 -6 -16 -21 -56 -34 -90 l-24 -63
25 0 c17 0 27 8 34 25 8 22 16 25 55 25 39 0 45 -3 51 -25 5 -20 13 -25 36
-25 16 0 27 3 25 7 -3 5 -24 56 -47 116 -37 95 -44 107 -66 107 -17 0 -28 -8
-34 -25z m54 -92 c6 -20 4 -23 -18 -23 -29 0 -31 6 -15 47 11 30 19 24 33 -24z"/>
</g>
</svg>
